<mxfile host="app.diagrams.net" modified="2024-06-16T17:19:04.622Z" agent="Mozilla/5.0 (X11; Ubuntu; Linux x86_64; rv:126.0) Gecko/20100101 Firefox/126.0" version="24.5.4" etag="-z1WbIM3-blwOzhbXm8V" type="github">
  <diagram name="Page-1" id="7HRH5ZeJ4T0YldFyCpEx">
    <mxGraphModel>
      <root>
        <mxCell id="0" />
        <mxCell id="1" parent="0" />
      </root>
    </mxGraphModel>
  </diagram>
</mxfile>
